<?xml version="1.0" encoding="iso-8859-1"?>
<!-- Generator: Adobe Illustrator 19.0.0, SVG Export Plug-In . SVG Version: 6.00 Build 0)  -->
<svg version="1.1" id="Capa_1" xmlns="http://www.w3.org/2000/svg" xmlns:xlink="http://www.w3.org/1999/xlink" x="0px" y="0px"
	 viewBox="0 0 512 512" style="enable-background:new 0 0 512 512;" xml:space="preserve">
<path style="fill:#34D6C1;" d="M508.736,354.283L264.625,251.414c-5.515-2.324-11.735-2.324-17.25,0L3.264,354.283
	c-4.351,1.834-4.353,8-0.002,9.835l244.104,102.986c5.52,2.329,11.747,2.329,17.267,0l244.104-102.986
	C513.088,362.282,513.087,356.116,508.736,354.283z"/>
<path style="fill:#1AC4AE;" d="M508.74,364.112l-244.105,102.99c-5.518,2.327-11.752,2.327-17.27,0l-11.997-5.059l232.097-97.93
	c4.355-1.825,4.355-7.995,0-9.83L235.368,256.47l12.008-5.059c5.518-2.316,11.73-2.316,17.248,0L508.74,354.282
	C513.084,356.118,513.084,362.287,508.74,364.112z"/>
<path style="fill:#FFD071;" d="M508.736,252.904L264.625,150.035c-5.515-2.324-11.735-2.324-17.25,0L3.264,252.904
	c-4.351,1.834-4.353,8-0.002,9.835l244.104,102.986c5.52,2.329,11.747,2.329,17.267,0l244.104-102.986
	C513.088,260.904,513.087,254.738,508.736,252.904z"/>
<path style="fill:#F7B657;" d="M508.74,262.734l-244.105,102.99c-5.518,2.327-11.752,2.327-17.27,0l-11.997-5.059l232.097-97.93
	c4.355-1.825,4.355-7.995,0-9.83l-232.097-97.813l12.008-5.059c5.518-2.316,11.73-2.316,17.248,0L508.74,252.904
	C513.084,254.74,513.084,260.909,508.74,262.734z"/>
<path style="fill:#FF6E5E;" d="M508.736,147.762L264.625,44.893c-5.515-2.324-11.735-2.324-17.25,0L3.264,147.762
	c-4.351,1.834-4.353,8-0.002,9.835l244.104,102.986c5.52,2.329,11.747,2.329,17.267,0l244.104-102.986
	C513.088,155.761,513.087,149.596,508.736,147.762z"/>
<path style="fill:#F4584D;" d="M508.74,157.592L264.635,260.581c-5.518,2.327-11.752,2.327-17.27,0l-11.997-5.059l232.097-97.93
	c4.355-1.825,4.355-7.995,0-9.83L235.368,49.948l12.008-5.059c5.518-2.316,11.73-2.316,17.248,0L508.74,147.761
	C513.084,149.597,513.084,155.766,508.74,157.592z"/>
<g>
</g>
<g>
</g>
<g>
</g>
<g>
</g>
<g>
</g>
<g>
</g>
<g>
</g>
<g>
</g>
<g>
</g>
<g>
</g>
<g>
</g>
<g>
</g>
<g>
</g>
<g>
</g>
<g>
</g>
</svg>
